<svg id="flat" height="512" viewBox="0 0 512 512" width="512" xmlns="http://www.w3.org/2000/svg"><path d="m200 56h272v256h-272z" fill="#548aff"/><path d="m328 144a48.00384 48.00384 0 1 1 -14.06-33.94 47.99956 47.99956 0 0 1 14.06 33.94z" fill="#f5714f"/><path d="m238.065 176h61.47v16h-61.47z" fill="#e0edff" transform="matrix(.625 -.781 .781 .625 -42.797 278.957)"/><path d="m184 312h304v32h-304z" fill="#e0edff"/><path d="m320 344h32v96h-32z" fill="#d1e4ff"/><path d="m320 440-32 48h-24l40-72h16z" fill="#c5dafa"/><path d="m352 440 32 48h24l-40-72h-16z" fill="#c5dafa"/><path d="m80 288h80v184h-80z" fill="#718799"/><path d="m104 184h24v24h-24z" fill="#ffbfa1"/><path d="m259.27 228.73-11.27 11.27-11.79 11.8a41.68508 41.68508 0 0 1 -29.46 12.2h-.4a42.84716 42.84716 0 0 1 -25.77-8.56c-9.19-6.89-20.58-15.44-20.58-15.44v40h-80v-40l-24 32v40l14.34 14.34a5.66 5.66 0 0 1 -4 9.66h-10.34v16h-16a15.99559 15.99559 0 0 1 -16-16v-69.75a31.9512 31.9512 0 0 1 5.96-18.59l24.47-34.26a31.99606 31.99606 0 0 1 26.04-13.4h76.31a32.01786 32.01786 0 0 1 19.99 7.01l31.23 24.99 40-40 11.27 11.27a18.00408 18.00408 0 0 1 0 25.46z" fill="#ffceb6"/><path d="m248 240-11.79 11.8a41.68508 41.68508 0 0 1 -29.46 12.2h-.4a42.84716 42.84716 0 0 1 -25.77-8.56c-9.19-6.89-20.58-15.44-20.58-15.44v48h-80v-48l-24 32v40h-32v-45.75a31.9512 31.9512 0 0 1 5.96-18.59l24.47-34.26a31.99606 31.99606 0 0 1 26.04-13.4h76.31a32.01786 32.01786 0 0 1 19.99 7.01l31.23 24.99 16-16z" fill="#ffb401"/><path d="m127.63281 462.48193-15.97265-.93945 7.88374-134.02594a8.00012 8.00012 0 0 1 8.45604-7.51654 8.00012 8.00012 0 0 1 7.51659 8.45609z" fill="#62798c"/><path d="m313.94 110.06-33.94 33.94v-48a47.81249 47.81249 0 0 1 33.94 14.06z" fill="#ffc431"/><path d="m184 24h304v32h-304z" fill="#e0edff"/><path d="m320 232h32v32h-32z" fill="#ffa100"/><path d="m352 208h32v56h-32z" fill="#ffb401"/><path d="m384 184h32v80h-32z" fill="#ffc431"/><g fill="#91c0ff"><path d="m352 96h16v16h-16z"/><path d="m384 96h56v16h-56z"/><path d="m352 128h64v16h-64z"/></g><path d="m136 168h-24l-8 8v8a16 16 0 0 0 16 16 16 16 0 0 0 16-16z" fill="#ffceb6"/><path d="m136 168 4.68629-4.68629a11.31372 11.31372 0 0 0 3.31371-8 11.31369 11.31369 0 0 0 -11.3137-11.31371h-12.6863a16 16 0 0 0 -16 16v16l8-8z" fill="#c47220"/><path d="m144.00311 212.68311-12.68311-12.68311h-22.64l-12.6831 12.68311a8 8 0 0 0 -.00006 11.31372l.00476.0047a8 8 0 0 0 11.31523-.00153l4.68317-4.68567v36.68567a8 8 0 0 0 16 0v-36.68567l4.68317 4.68567a8 8 0 0 0 11.31524.00153l.00476-.0047a8 8 0 0 0 -.00006-11.31372z" fill="#ffa100"/><path d="m120 464v24h64v-16l-24-16z" fill="#c5dafa"/><path d="m80 464v24h64v-16l-24-16z" fill="#d1e4ff"/><path d="m296 256h144v16h-144z" fill="#91c0ff"/></svg>